<?xml version="1.0" standalone="no"?>
<!DOCTYPE svg PUBLIC "-//W3C//DTD SVG 20010904//EN"
 "http://www.w3.org/TR/2001/REC-SVG-20010904/DTD/svg10.dtd">
<svg version="1.0" xmlns="http://www.w3.org/2000/svg"
 width="260.000000pt" height="260.000000pt" viewBox="0 0 260.000000 260.000000"
 preserveAspectRatio="xMidYMid meet">
<metadata>
Created by potrace 1.11, written by Peter Selinger 2001-2013
</metadata>
<g transform="translate(0.000000,260.000000) scale(0.100000,-0.100000)"
fill="#000000" stroke="none">
<path d="M182 2265 c-3 -5 -6 -418 -7 -917 l0 -908 695 0 695 0 110 132 c61
72 124 147 142 167 l32 36 28 -34 c54 -66 156 -186 205 -244 l50 -57 179 0
c98 0 179 3 179 8 0 4 -12 21 -28 37 -15 17 -74 86 -132 155 -58 69 -115 136
-127 150 -11 14 -55 65 -97 115 l-75 89 43 51 c23 27 129 152 234 278 l192
227 -58 1 c-31 0 -113 1 -181 1 l-124 1 -31 -35 c-17 -19 -51 -59 -76 -88 -25
-30 -61 -72 -80 -95 -19 -22 -50 -59 -69 -82 l-34 -41 -56 66 c-30 37 -60 72
-66 78 -5 6 -44 52 -85 103 l-75 91 -70 1 c-38 0 -260 1 -492 1 -296 1 -423 4
-426 12 -2 6 -3 97 -3 201 l1 190 330 1 c182 1 336 2 343 3 10 1 12 37 10 158
l-3 158 -533 0 c-347 0 -536 -3 -540 -10z m1165 -895 c60 -70 300 -357 306
-367 5 -8 -24 -50 -80 -116 -48 -57 -137 -163 -198 -235 -60 -72 -111 -129
-112 -128 -1 1 -3 55 -4 119 l-1 117 -47 1 c-25 0 -179 1 -341 2 l-295 2 0
232 c0 199 2 232 15 235 8 2 151 3 318 3 l302 -1 0 149 0 149 58 -69 c31 -37
67 -79 79 -93z"/>
</g>
</svg>
